<svg width="74" height="74" viewBox="0 0 74 74" fill="none" xmlns="http://www.w3.org/2000/svg">
<path d="M37 74C44.3598 74 51.4181 71.0763 56.6222 65.8722C61.8263 60.6681 64.75 53.6098 64.75 46.25C64.75 38.5956 59.5607 32.819 53.502 26.0758C47.4247 19.314 40.4688 11.5764 37 0C37 0 9.25 26.2977 9.25 46.25C9.25 53.6098 12.1737 60.6681 17.3778 65.8722C22.5819 71.0763 29.6402 74 37 74ZM30.7377 21.4877L34.0123 24.7623C32.671 26.1035 28.7952 30.8256 25.1924 38.036L21.0576 35.964C24.8501 28.3744 28.9987 23.2314 30.7377 21.4877Z" fill="#2EA3F8"/>
</svg>
