<svg width="148" height="155" viewBox="0 0 148 155" fill="none" xmlns="http://www.w3.org/2000/svg">
<circle cx="76.0001" cy="72" r="72" fill="#461A00"/>
<mask id="mask0_273_86" style="mask-type:alpha" maskUnits="userSpaceOnUse" x="16" y="12" width="121" height="120">
<circle cx="76.0001" cy="72" r="60" fill="#D2FFFA"/>
</mask>
<g mask="url(#mask0_273_86)">
<circle cx="76.0001" cy="72" r="60" fill="url(#paint0_linear_273_86)"/>
</g>
<path d="M39.6311 112.317C19.5779 99.2549 6.29531 106.47 2.16067 111.711C5.6589 109.662 5.95863 114.185 18.4118 126.624C30.865 139.062 64.6976 128.644 39.6311 112.317Z" fill="url(#paint1_linear_273_86)" stroke="black"/>
<path d="M44.5751 142.882C22.2734 151.563 10.7485 141.783 7.77372 135.807C10.7786 138.528 11.9975 134.163 26.7326 124.535C41.4677 114.908 72.4523 132.03 44.5751 142.882Z" fill="url(#paint2_linear_273_86)" stroke="black"/>
<defs>
<linearGradient id="paint0_linear_273_86" x1="83.0001" y1="115" x2="84.0001" y2="53.5" gradientUnits="userSpaceOnUse">
<stop stop-color="#73C0DA"/>
<stop offset="1" stop-color="#EFE6CB"/>
</linearGradient>
<linearGradient id="paint1_linear_273_86" x1="15.6803" y1="109.232" x2="49.0102" y2="133.056" gradientUnits="userSpaceOnUse">
<stop stop-color="#9AA100"/>
<stop offset="1" stop-color="#658402"/>
</linearGradient>
<linearGradient id="paint2_linear_273_86" x1="20.4999" y1="141" x2="57.9999" y2="124.5" gradientUnits="userSpaceOnUse">
<stop stop-color="#9AA100"/>
<stop offset="1" stop-color="#658402"/>
</linearGradient>
</defs>
</svg>
