<svg width="46" height="48" viewBox="0 0 46 48" fill="none" xmlns="http://www.w3.org/2000/svg">
<g filter="url(#filter0_d_208_115)">
<mask id="path-1-outside-1_208_115" maskUnits="userSpaceOnUse" x="4" y="0" width="38" height="40" fill="black">
<rect fill="white" x="4" width="38" height="40"/>
<path d="M23 4C14.7284 4 8 10.494 8 18.4761C8 23.4124 10.6351 28.0303 14.9231 30.6765V32.9521C14.9231 33.5664 15.1662 34.1555 15.599 34.5899C16.0318 35.0243 16.6187 35.2683 17.2308 35.2683H18.3846C18.5376 35.2683 18.6844 35.2073 18.7926 35.0987C18.9008 34.9901 18.9615 34.8428 18.9615 34.6892V30.675C18.9575 30.3762 19.0664 30.0869 19.2663 29.8653C19.4662 29.6437 19.7422 29.5063 20.0389 29.4808C20.1968 29.4702 20.3551 29.4924 20.504 29.5459C20.6529 29.5994 20.7893 29.683 20.9047 29.7916C21.0201 29.9002 21.112 30.0315 21.1747 30.1772C21.2374 30.323 21.2696 30.4801 21.2692 30.6388V34.6921C21.2692 34.8457 21.33 34.993 21.4382 35.1016C21.5464 35.2102 21.6931 35.2712 21.8462 35.2712H24.1538C24.3069 35.2712 24.4536 35.2102 24.5618 35.1016C24.67 34.993 24.7308 34.8457 24.7308 34.6921V30.675C24.7268 30.3762 24.8356 30.0869 25.0355 29.8653C25.2354 29.6437 25.5115 29.5063 25.8082 29.4808C25.966 29.4702 26.1243 29.4924 26.2732 29.5459C26.4222 29.5994 26.5586 29.683 26.6739 29.7916C26.7893 29.9002 26.8812 30.0315 26.9439 30.1772C27.0066 30.323 27.0388 30.4801 27.0385 30.6388V34.6921C27.0385 34.8457 27.0992 34.993 27.2074 35.1016C27.3156 35.2102 27.4624 35.2712 27.6154 35.2712H28.7692C29.3813 35.2712 29.9682 35.0272 30.401 34.5928C30.8338 34.1584 31.0769 33.5693 31.0769 32.955V30.6765C35.3649 28.0303 38 23.4124 38 18.4761C38 10.494 31.2716 4 23 4ZM17.8077 23.6874C17.2372 23.6874 16.6795 23.5176 16.2051 23.1995C15.7307 22.8814 15.361 22.4292 15.1427 21.9002C14.9243 21.3711 14.8672 20.789 14.9785 20.2274C15.0898 19.6658 15.3645 19.1499 15.768 18.745C16.1714 18.3401 16.6854 18.0644 17.2449 17.9526C17.8045 17.8409 18.3845 17.8983 18.9116 18.1174C19.4387 18.3365 19.8892 18.7076 20.2062 19.1837C20.5231 19.6599 20.6923 20.2196 20.6923 20.7922C20.6923 21.5601 20.3884 22.2965 19.8474 22.8395C19.3065 23.3824 18.5727 23.6874 17.8077 23.6874ZM28.1923 23.6874C27.6218 23.6874 27.0641 23.5176 26.5897 23.1995C26.1153 22.8814 25.7456 22.4292 25.5273 21.9002C25.3089 21.3711 25.2518 20.789 25.3631 20.2274C25.4744 19.6658 25.7492 19.1499 26.1526 18.745C26.556 18.3401 27.07 18.0644 27.6295 17.9526C28.1891 17.8409 28.7691 17.8983 29.2962 18.1174C29.8233 18.3365 30.2738 18.7076 30.5908 19.1837C30.9077 19.6599 31.0769 20.2196 31.0769 20.7922C31.0769 21.5601 30.773 22.2965 30.232 22.8395C29.6911 23.3824 28.9574 23.6874 28.1923 23.6874Z"/>
</mask>
<path d="M23 4C14.7284 4 8 10.494 8 18.4761C8 23.4124 10.6351 28.0303 14.9231 30.6765V32.9521C14.9231 33.5664 15.1662 34.1555 15.599 34.5899C16.0318 35.0243 16.6187 35.2683 17.2308 35.2683H18.3846C18.5376 35.2683 18.6844 35.2073 18.7926 35.0987C18.9008 34.9901 18.9615 34.8428 18.9615 34.6892V30.675C18.9575 30.3762 19.0664 30.0869 19.2663 29.8653C19.4662 29.6437 19.7422 29.5063 20.0389 29.4808C20.1968 29.4702 20.3551 29.4924 20.504 29.5459C20.6529 29.5994 20.7893 29.683 20.9047 29.7916C21.0201 29.9002 21.112 30.0315 21.1747 30.1772C21.2374 30.323 21.2696 30.4801 21.2692 30.6388V34.6921C21.2692 34.8457 21.33 34.993 21.4382 35.1016C21.5464 35.2102 21.6931 35.2712 21.8462 35.2712H24.1538C24.3069 35.2712 24.4536 35.2102 24.5618 35.1016C24.67 34.993 24.7308 34.8457 24.7308 34.6921V30.675C24.7268 30.3762 24.8356 30.0869 25.0355 29.8653C25.2354 29.6437 25.5115 29.5063 25.8082 29.4808C25.966 29.4702 26.1243 29.4924 26.2732 29.5459C26.4222 29.5994 26.5586 29.683 26.6739 29.7916C26.7893 29.9002 26.8812 30.0315 26.9439 30.1772C27.0066 30.323 27.0388 30.4801 27.0385 30.6388V34.6921C27.0385 34.8457 27.0992 34.993 27.2074 35.1016C27.3156 35.2102 27.4624 35.2712 27.6154 35.2712H28.7692C29.3813 35.2712 29.9682 35.0272 30.401 34.5928C30.8338 34.1584 31.0769 33.5693 31.0769 32.955V30.6765C35.3649 28.0303 38 23.4124 38 18.4761C38 10.494 31.2716 4 23 4ZM17.8077 23.6874C17.2372 23.6874 16.6795 23.5176 16.2051 23.1995C15.7307 22.8814 15.361 22.4292 15.1427 21.9002C14.9243 21.3711 14.8672 20.789 14.9785 20.2274C15.0898 19.6658 15.3645 19.1499 15.768 18.745C16.1714 18.3401 16.6854 18.0644 17.2449 17.9526C17.8045 17.8409 18.3845 17.8983 18.9116 18.1174C19.4387 18.3365 19.8892 18.7076 20.2062 19.1837C20.5231 19.6599 20.6923 20.2196 20.6923 20.7922C20.6923 21.5601 20.3884 22.2965 19.8474 22.8395C19.3065 23.3824 18.5727 23.6874 17.8077 23.6874ZM28.1923 23.6874C27.6218 23.6874 27.0641 23.5176 26.5897 23.1995C26.1153 22.8814 25.7456 22.4292 25.5273 21.9002C25.3089 21.3711 25.2518 20.789 25.3631 20.2274C25.4744 19.6658 25.7492 19.1499 26.1526 18.745C26.556 18.3401 27.07 18.0644 27.6295 17.9526C28.1891 17.8409 28.7691 17.8983 29.2962 18.1174C29.8233 18.3365 30.2738 18.7076 30.5908 19.1837C30.9077 19.6599 31.0769 20.2196 31.0769 20.7922C31.0769 21.5601 30.773 22.2965 30.232 22.8395C29.6911 23.3824 28.9574 23.6874 28.1923 23.6874Z" fill="white"/>
<path d="M14.9231 30.6765H18.9231V28.4446L17.0238 27.2725L14.9231 30.6765ZM18.9615 30.675H22.9615V30.6482L22.9612 30.6214L18.9615 30.675ZM20.0389 29.4808L19.773 25.4896L19.7341 25.4922L19.6953 25.4955L20.0389 29.4808ZM21.2692 30.6388L17.2692 30.6301V30.6388H21.2692ZM24.7308 30.675H28.7308V30.6482L28.7304 30.6214L24.7308 30.675ZM25.8082 29.4808L25.5422 25.4896L25.5034 25.4922L25.4646 25.4955L25.8082 29.4808ZM27.0385 30.6388L23.0385 30.6301V30.6388H27.0385ZM31.0769 30.6765L28.9762 27.2725L27.0769 28.4446V30.6765H31.0769ZM23 0C12.6544 0 4 8.15207 4 18.4761H12C12 12.8358 16.8024 8 23 8V0ZM4 18.4761C4 24.8473 7.39501 30.7311 12.8224 34.0805L17.0238 27.2725C13.8752 25.3294 12 21.9775 12 18.4761H4ZM10.9231 30.6765V32.9521H18.9231V30.6765H10.9231ZM10.9231 32.9521C10.9231 34.6226 11.5841 36.2275 12.7654 37.4131L18.4326 31.7667C18.7483 32.0836 18.9231 32.5103 18.9231 32.9521H10.9231ZM12.7654 37.4131C13.9472 38.5993 15.5531 39.2683 17.2308 39.2683V31.2683C17.6843 31.2683 18.1164 31.4493 18.4326 31.7667L12.7654 37.4131ZM17.2308 39.2683H18.3846V31.2683H17.2308V39.2683ZM18.3846 39.2683C19.6032 39.2683 20.769 38.7823 21.6262 37.9219L15.959 32.2755C16.5998 31.6323 17.472 31.2683 18.3846 31.2683V39.2683ZM21.6262 37.9219C22.4829 37.0621 22.9615 35.899 22.9615 34.6892H14.9615C14.9615 33.7867 15.3186 32.9181 15.959 32.2755L21.6262 37.9219ZM22.9615 34.6892V30.675H14.9615V34.6892H22.9615ZM22.9612 30.6214C22.9707 31.3289 22.7131 32.0162 22.2363 32.5447L16.2963 27.1859C15.4198 28.1575 14.9444 29.4235 14.9619 30.7287L22.9612 30.6214ZM22.2363 32.5447C21.7592 33.0736 21.0973 33.4044 20.3825 33.466L19.6953 25.4955C18.3872 25.6083 17.1732 26.2139 16.2963 27.1859L22.2363 32.5447ZM20.3049 33.4719C19.9135 33.498 19.5211 33.443 19.1524 33.3106L21.8556 25.7812C21.189 25.5418 20.48 25.4425 19.773 25.4896L20.3049 33.4719ZM19.1524 33.3106C18.7837 33.1782 18.4471 32.9716 18.163 32.7042L23.6464 26.879C23.1316 26.3944 22.5222 26.0205 21.8556 25.7812L19.1524 33.3106ZM18.163 32.7042C17.8791 32.4369 17.6538 32.1147 17.5003 31.758L24.8491 28.5964C24.5702 27.9482 24.1611 27.3635 23.6464 26.879L18.163 32.7042ZM17.5003 31.758C17.3469 31.4014 17.2684 31.0175 17.2692 30.6301L25.2692 30.6476C25.2708 29.9426 25.1279 29.2445 24.8491 28.5964L17.5003 31.758ZM17.2692 30.6388V34.6921H25.2692V30.6388H17.2692ZM17.2692 34.6921C17.2692 35.9018 17.7479 37.065 18.6046 37.9248L24.2718 32.2784C24.9121 32.921 25.2692 33.7896 25.2692 34.6921H17.2692ZM18.6046 37.9248C19.4618 38.7852 20.6275 39.2712 21.8462 39.2712V31.2712C22.7587 31.2712 23.631 31.6352 24.2718 32.2784L18.6046 37.9248ZM21.8462 39.2712H24.1538V31.2712H21.8462V39.2712ZM24.1538 39.2712C25.3725 39.2712 26.5382 38.7852 27.3954 37.9248L21.7282 32.2784C22.369 31.6352 23.2413 31.2712 24.1538 31.2712V39.2712ZM27.3954 37.9248C28.2521 37.065 28.7308 35.9018 28.7308 34.6921H20.7308C20.7308 33.7896 21.0879 32.921 21.7282 32.2784L27.3954 37.9248ZM28.7308 34.6921V30.675H20.7308V34.6921H28.7308ZM28.7304 30.6214C28.7399 31.3289 28.4823 32.0162 28.0055 32.5447L22.0655 27.1859C21.189 28.1575 20.7136 29.4235 20.7311 30.7287L28.7304 30.6214ZM28.0055 32.5447C27.5284 33.0736 26.8665 33.4044 26.1518 33.466L25.4646 25.4955C24.1564 25.6083 22.9424 26.2139 22.0655 27.1859L28.0055 32.5447ZM26.0742 33.4719C25.6827 33.498 25.2904 33.443 24.9216 33.3106L27.6248 25.7812C26.9582 25.5418 26.2493 25.4425 25.5422 25.4896L26.0742 33.4719ZM24.9216 33.3106C24.5529 33.1782 24.2163 32.9715 23.9323 32.7042L29.4156 26.879C28.9008 26.3944 28.2914 26.0205 27.6248 25.7812L24.9216 33.3106ZM23.9323 32.7042C23.6483 32.4369 23.423 32.1146 23.2696 31.758L30.6183 28.5964C30.3395 27.9483 29.9304 27.3635 29.4156 26.879L23.9323 32.7042ZM23.2696 31.758C23.1161 31.4014 23.0376 31.0176 23.0385 30.6301L31.0385 30.6476C31.04 29.9426 30.8971 29.2445 30.6183 28.5964L23.2696 31.758ZM23.0385 30.6388V34.6921H31.0385V30.6388H23.0385ZM23.0385 34.6921C23.0385 35.9018 23.5171 37.065 24.3738 37.9248L30.041 32.2784C30.6814 32.921 31.0385 33.7896 31.0385 34.6921H23.0385ZM24.3738 37.9248C25.231 38.7852 26.3968 39.2712 27.6154 39.2712V31.2712C28.528 31.2712 29.4002 31.6352 30.041 32.2784L24.3738 37.9248ZM27.6154 39.2712H28.7692V31.2712H27.6154V39.2712ZM28.7692 39.2712C30.4469 39.2712 32.0528 38.6022 33.2346 37.416L27.5674 31.7696C27.8836 31.4522 28.3157 31.2712 28.7692 31.2712V39.2712ZM33.2346 37.416C34.4159 36.2304 35.0769 34.6255 35.0769 32.955H27.0769C27.0769 32.5132 27.2517 32.0865 27.5674 31.7696L33.2346 37.416ZM35.0769 32.955V30.6765H27.0769V32.955H35.0769ZM33.1776 34.0805C38.605 30.7311 42 24.8473 42 18.4761H34C34 21.9775 32.1248 25.3294 28.9762 27.2725L33.1776 34.0805ZM42 18.4761C42 8.15207 33.3456 0 23 0V8C29.1976 8 34 12.8358 34 18.4761H42ZM17.8077 19.6874C18.0316 19.6874 18.2492 19.7541 18.433 19.8774L13.9772 26.5216C15.1097 27.2811 16.4428 27.6874 17.8077 27.6874V19.6874ZM18.433 19.8774C18.6166 20.0005 18.7575 20.174 18.8402 20.3742L11.4452 23.4261C11.9644 24.6844 12.8448 25.7622 13.9772 26.5216L18.433 19.8774ZM18.8402 20.3742C18.9227 20.5743 18.9441 20.7936 18.9022 21.005L11.0548 19.4498C10.7903 20.7844 10.9259 22.168 11.4452 23.4261L18.8402 20.3742ZM18.9022 21.005C18.8603 21.2165 18.7564 21.4128 18.6016 21.5682L12.9344 15.9218C11.9726 16.887 11.3193 18.1151 11.0548 19.4498L18.9022 21.005ZM18.6016 21.5682C18.4465 21.7238 18.2472 21.8315 18.028 21.8752L16.4618 14.0301C15.1235 14.2972 13.8962 14.9564 12.9344 15.9218L18.6016 21.5682ZM18.028 21.8752C17.8088 21.919 17.5817 21.8964 17.3761 21.8109L20.4471 14.4239C19.1873 13.9001 17.8002 13.7629 16.4618 14.0301L18.028 21.8752ZM17.3761 21.8109C17.1706 21.7255 16.9973 21.5818 16.8765 21.4004L23.5358 16.9671C22.7811 15.8334 21.7068 14.9476 20.4471 14.4239L17.3761 21.8109ZM16.8765 21.4004C16.7558 21.2191 16.6923 21.0075 16.6923 20.7922H24.6923C24.6923 19.4317 24.2904 18.1006 23.5358 16.9671L16.8765 21.4004ZM16.6923 20.7922C16.6923 20.5039 16.8063 20.2245 17.0138 20.0162L22.681 25.6627C23.9705 24.3685 24.6923 22.6162 24.6923 20.7922H16.6923ZM17.0138 20.0162C17.2219 19.8074 17.5071 19.6874 17.8077 19.6874V27.6874C19.6383 27.6874 21.3911 26.9574 22.681 25.6627L17.0138 20.0162ZM28.1923 19.6874C28.4162 19.6874 28.6338 19.7541 28.8176 19.8774L24.3618 26.5216C25.4943 27.2811 26.8274 27.6874 28.1923 27.6874V19.6874ZM28.8176 19.8774C29.0012 20.0006 29.1421 20.174 29.2248 20.3742L21.8298 23.4261C22.3491 24.6844 23.2294 25.7622 24.3618 26.5216L28.8176 19.8774ZM29.2248 20.3742C29.3073 20.5743 29.3287 20.7936 29.2868 21.005L21.4394 19.4498C21.1749 20.7844 21.3106 22.168 21.8298 23.4261L29.2248 20.3742ZM29.2868 21.005C29.2449 21.2165 29.1411 21.4128 28.9862 21.5682L23.319 15.9218C22.3572 16.887 21.704 18.1151 21.4394 19.4498L29.2868 21.005ZM28.9862 21.5682C28.8312 21.7238 28.6318 21.8315 28.4127 21.8752L26.8464 14.0301C25.5081 14.2972 24.2808 14.9564 23.319 15.9218L28.9862 21.5682ZM28.4127 21.8752C28.1934 21.919 27.9663 21.8964 27.7607 21.8109L30.8317 14.4239C29.5719 13.9001 28.1848 13.7629 26.8464 14.0301L28.4127 21.8752ZM27.7607 21.8109C27.5552 21.7255 27.3819 21.5818 27.2611 21.4004L33.9204 16.9671C33.1657 15.8334 32.0914 14.9476 30.8317 14.4239L27.7607 21.8109ZM27.2611 21.4004C27.1404 21.2191 27.0769 21.0075 27.0769 20.7922H35.0769C35.0769 19.4317 34.675 18.1006 33.9204 16.9671L27.2611 21.4004ZM27.0769 20.7922C27.0769 20.5039 27.1909 20.2245 27.3984 20.0162L33.0656 25.6627C34.3551 24.3685 35.0769 22.6162 35.0769 20.7922H27.0769ZM27.3984 20.0162C27.6065 19.8074 27.8917 19.6874 28.1923 19.6874V27.6874C30.023 27.6874 31.7757 26.9574 33.0656 25.6627L27.3984 20.0162Z" fill="black" mask="url(#path-1-outside-1_208_115)"/>
</g>
<defs>
<filter id="filter0_d_208_115" x="0" y="0" width="46" height="47.2712" filterUnits="userSpaceOnUse" color-interpolation-filters="sRGB">
<feFlood flood-opacity="0" result="BackgroundImageFix"/>
<feColorMatrix in="SourceAlpha" type="matrix" values="0 0 0 0 0 0 0 0 0 0 0 0 0 0 0 0 0 0 127 0" result="hardAlpha"/>
<feOffset dy="4"/>
<feGaussianBlur stdDeviation="2"/>
<feComposite in2="hardAlpha" operator="out"/>
<feColorMatrix type="matrix" values="0 0 0 0 0 0 0 0 0 0 0 0 0 0 0 0 0 0 0.25 0"/>
<feBlend mode="normal" in2="BackgroundImageFix" result="effect1_dropShadow_208_115"/>
<feBlend mode="normal" in="SourceGraphic" in2="effect1_dropShadow_208_115" result="shape"/>
</filter>
</defs>
</svg>
